<svg width="2248" height="449" viewBox="0 0 2248 449" fill="none" xmlns="http://www.w3.org/2000/svg">
<path d="M492 368.599C492 364.582 492.901 360.979 494.703 357.789C496.543 354.599 499.016 352.118 502.121 350.346C505.265 348.535 508.696 347.629 512.415 347.629C516.67 347.629 520.446 348.712 523.744 350.878C527.079 353.004 529.494 356.037 530.989 359.975H523.111C522.076 357.809 520.638 356.194 518.798 355.131C516.958 354.068 514.83 353.536 512.415 353.536C509.769 353.536 507.412 354.146 505.341 355.367C503.271 356.588 501.642 358.341 500.453 360.625C499.303 362.909 498.728 365.567 498.728 368.599C498.728 371.632 499.303 374.29 500.453 376.574C501.642 378.858 503.271 380.63 505.341 381.891C507.412 383.111 509.769 383.722 512.415 383.722C514.83 383.722 516.958 383.19 518.798 382.127C520.638 381.064 522.076 379.449 523.111 377.283H530.989C529.494 381.221 527.079 384.253 523.744 386.38C520.446 388.507 516.67 389.57 512.415 389.57C508.658 389.57 505.226 388.684 502.121 386.912C499.016 385.1 496.543 382.599 494.703 379.41C492.901 376.22 492 372.616 492 368.599Z" fill="white"/>
<path d="M571.269 389.629C567.55 389.629 564.119 388.743 560.975 386.971C557.87 385.159 555.397 382.658 553.557 379.469C551.755 376.239 550.854 372.616 550.854 368.599C550.854 364.582 551.755 360.979 553.557 357.789C555.397 354.599 557.87 352.118 560.975 350.346C564.119 348.535 567.55 347.629 571.269 347.629C575.026 347.629 578.457 348.535 581.563 350.346C584.706 352.118 587.179 354.599 588.981 357.789C590.783 360.979 591.684 364.582 591.684 368.599C591.684 372.616 590.783 376.239 588.981 379.469C587.179 382.658 584.706 385.159 581.563 386.971C578.457 388.743 575.026 389.629 571.269 389.629ZM571.269 383.781C573.914 383.781 576.272 383.17 578.342 381.95C580.412 380.689 582.023 378.917 583.173 376.633C584.361 374.31 584.956 371.632 584.956 368.599C584.956 365.567 584.361 362.909 583.173 360.625C582.023 358.341 580.412 356.588 578.342 355.367C576.272 354.146 573.914 353.536 571.269 353.536C568.624 353.536 566.266 354.146 564.196 355.367C562.125 356.588 560.496 358.341 559.308 360.625C558.158 362.909 557.582 365.567 557.582 368.599C557.582 371.632 558.158 374.31 559.308 376.633C560.496 378.917 562.125 380.689 564.196 381.95C566.266 383.17 568.624 383.781 571.269 383.781Z" fill="white"/>
<path d="M633.271 389.215L624.07 372.793H619.067V389.215H612.511V348.161H626.313C629.38 348.161 631.968 348.712 634.076 349.815C636.223 350.917 637.814 352.394 638.849 354.245C639.923 356.096 640.459 358.163 640.459 360.447C640.459 363.125 639.693 365.567 638.159 367.772C636.664 369.938 634.345 371.415 631.201 372.203L641.092 389.215H633.271ZM619.067 367.418H626.313C628.767 367.418 630.607 366.788 631.834 365.528C633.099 364.267 633.731 362.574 633.731 360.447C633.731 358.321 633.118 356.667 631.891 355.485C630.664 354.265 628.805 353.654 626.313 353.654H619.067V367.418Z" fill="white"/>
<path d="M683.982 389.215L674.781 372.793H669.778V389.215H663.223V348.161H677.024C680.091 348.161 682.679 348.712 684.787 349.815C686.934 350.917 688.525 352.394 689.561 354.245C690.634 356.096 691.171 358.163 691.171 360.447C691.171 363.125 690.404 365.567 688.87 367.772C687.375 369.938 685.056 371.415 681.912 372.203L691.803 389.215H683.982ZM669.778 367.418H677.024C679.478 367.418 681.318 366.788 682.545 365.528C683.81 364.267 684.442 362.574 684.442 360.447C684.442 358.321 683.829 356.667 682.602 355.485C681.375 354.265 679.516 353.654 677.024 353.654H669.778V367.418Z" fill="white"/>
<path d="M720.49 353.595V365.646H734.291V371.139H720.49V383.722H736.016V389.215H713.934V348.101H736.016V353.595H720.49Z" fill="white"/>
<path d="M784.288 348.161V353.654H773.649V389.215H767.094V353.654H756.397V348.161H784.288Z" fill="white"/>
<path d="M823.533 389.629C819.815 389.629 816.383 388.743 813.24 386.971C810.134 385.159 807.662 382.658 805.821 379.469C804.02 376.239 803.119 372.616 803.119 368.599C803.119 364.582 804.02 360.979 805.821 357.789C807.662 354.599 810.134 352.118 813.24 350.346C816.383 348.535 819.815 347.629 823.533 347.629C827.29 347.629 830.722 348.535 833.827 350.346C836.971 352.118 839.443 354.599 841.245 357.789C843.047 360.979 843.948 364.582 843.948 368.599C843.948 372.616 843.047 376.239 841.245 379.469C839.443 382.658 836.971 385.159 833.827 386.971C830.722 388.743 827.29 389.629 823.533 389.629ZM823.533 383.781C826.179 383.781 828.536 383.17 830.607 381.95C832.677 380.689 834.287 378.917 835.437 376.633C836.626 374.31 837.22 371.632 837.22 368.599C837.22 365.567 836.626 362.909 835.437 360.625C834.287 358.341 832.677 356.588 830.607 355.367C828.536 354.146 826.179 353.536 823.533 353.536C820.888 353.536 818.53 354.146 816.46 355.367C814.39 356.588 812.76 358.341 811.572 360.625C810.422 362.909 809.847 365.567 809.847 368.599C809.847 371.632 810.422 374.31 811.572 376.633C812.76 378.917 814.39 380.689 816.46 381.95C818.53 383.17 820.888 383.781 823.533 383.781Z" fill="white"/>
<path d="M885.536 389.215L876.335 372.793H871.332V389.215H864.776V348.161H878.577C881.644 348.161 884.232 348.712 886.341 349.815C888.488 350.917 890.079 352.394 891.114 354.245C892.187 356.096 892.724 358.163 892.724 360.447C892.724 363.125 891.957 365.567 890.424 367.772C888.928 369.938 886.609 371.415 883.465 372.203L893.356 389.215H885.536ZM871.332 367.418H878.577C881.031 367.418 882.871 366.788 884.098 365.528C885.363 364.267 885.996 362.574 885.996 360.447C885.996 358.321 885.382 356.667 884.155 355.485C882.929 354.265 881.069 353.654 878.577 353.654H871.332V367.418Z" fill="white"/>
<path d="M957.856 348.161C962.111 348.161 965.83 349.007 969.012 350.701C972.232 352.355 974.705 354.757 976.43 357.907C978.194 361.018 979.076 364.661 979.076 368.836C979.076 373.01 978.194 376.633 976.43 379.705C974.705 382.777 972.232 385.139 969.012 386.793C965.83 388.408 962.111 389.215 957.856 389.215H944.802V348.161H957.856ZM957.856 383.722C962.533 383.722 966.117 382.422 968.609 379.823C971.101 377.224 972.347 373.561 972.347 368.836C972.347 364.071 971.101 360.349 968.609 357.671C966.117 354.993 962.533 353.654 957.856 353.654H951.357V383.722H957.856Z" fill="white"/>
<path d="M1006.51 353.595V365.646H1020.31V371.139H1006.51V383.722H1022.03V389.215H999.949V348.101H1022.03V353.595H1006.51Z" fill="white"/>
<path d="M1080.35 348.161V389.215H1073.8V348.161H1080.35Z" fill="white"/>
<path d="M1145.43 348.161V389.215H1138.88V361.097L1126.69 389.215H1122.14L1109.89 361.097V389.215H1103.34V348.161H1110.41L1124.44 380.355L1138.42 348.161H1145.43Z" fill="white"/>
<path d="M1186.65 389.629C1182.94 389.629 1179.5 388.743 1176.36 386.971C1173.26 385.159 1170.78 382.658 1168.94 379.469C1167.14 376.239 1166.24 372.616 1166.24 368.599C1166.24 364.582 1167.14 360.979 1168.94 357.789C1170.78 354.599 1173.26 352.118 1176.36 350.346C1179.5 348.535 1182.94 347.629 1186.65 347.629C1190.41 347.629 1193.84 348.535 1196.95 350.346C1200.09 352.118 1202.56 354.599 1204.37 357.789C1206.17 360.979 1207.07 364.582 1207.07 368.599C1207.07 372.616 1206.17 376.239 1204.37 379.469C1202.56 382.658 1200.09 385.159 1196.95 386.971C1193.84 388.743 1190.41 389.629 1186.65 389.629ZM1186.65 383.781C1189.3 383.781 1191.66 383.17 1193.73 381.95C1195.8 380.689 1197.41 378.917 1198.56 376.633C1199.75 374.31 1200.34 371.632 1200.34 368.599C1200.34 365.567 1199.75 362.909 1198.56 360.625C1197.41 358.341 1195.8 356.588 1193.73 355.367C1191.66 354.146 1189.3 353.536 1186.65 353.536C1184.01 353.536 1181.65 354.146 1179.58 355.367C1177.51 356.588 1175.88 358.341 1174.69 360.625C1173.54 362.909 1172.97 365.567 1172.97 368.599C1172.97 371.632 1173.54 374.31 1174.69 376.633C1175.88 378.917 1177.51 380.689 1179.58 381.95C1181.65 383.17 1184.01 383.781 1186.65 383.781ZM1192.58 339.359L1179.87 345.798V340.836L1192.58 333.629V339.359Z" fill="white"/>
<path d="M1262.34 348.161L1247.33 389.215H1239.74L1224.68 348.161H1231.69L1243.54 382.304L1255.44 348.161H1262.34Z" fill="white"/>
<path d="M1288.76 353.595V365.646H1302.56V371.139H1288.76V383.722H1304.29V389.215H1282.2V348.101H1304.29V353.595H1288.76Z" fill="white"/>
<path d="M1333.29 348.161V389.215H1326.74V348.161H1333.29Z" fill="white"/>
<path d="M1369.44 389.629C1366.76 389.629 1364.35 389.156 1362.2 388.211C1360.05 387.227 1358.37 385.848 1357.14 384.076C1355.91 382.304 1355.3 380.237 1355.3 377.874H1362.31C1362.47 379.646 1363.14 381.103 1364.33 382.245C1365.55 383.387 1367.26 383.958 1369.44 383.958C1371.71 383.958 1373.47 383.407 1374.74 382.304C1376 381.162 1376.63 379.705 1376.63 377.933C1376.63 376.554 1376.23 375.432 1375.43 374.566C1374.66 373.699 1373.68 373.03 1372.49 372.557C1371.34 372.085 1369.73 371.573 1367.66 371.021C1365.06 370.312 1362.93 369.604 1361.28 368.895C1359.67 368.146 1358.29 367.004 1357.14 365.469C1355.99 363.933 1355.41 361.885 1355.41 359.325C1355.41 356.962 1355.99 354.895 1357.14 353.123C1358.29 351.35 1359.9 349.992 1361.97 349.047C1364.04 348.101 1366.44 347.629 1369.16 347.629C1373.03 347.629 1376.19 348.633 1378.65 350.642C1381.14 352.611 1382.52 355.328 1382.79 358.793H1375.54C1375.43 357.297 1374.74 356.017 1373.47 354.954C1372.21 353.891 1370.54 353.359 1368.47 353.359C1366.59 353.359 1365.06 353.851 1363.87 354.836C1362.68 355.82 1362.08 357.238 1362.08 359.089C1362.08 360.349 1362.45 361.393 1363.18 362.22C1363.94 363.007 1364.9 363.637 1366.05 364.11C1367.2 364.582 1368.77 365.094 1370.77 365.646C1373.41 366.394 1375.56 367.142 1377.21 367.891C1378.89 368.639 1380.31 369.8 1381.46 371.376C1382.65 372.912 1383.25 374.979 1383.25 377.578C1383.25 379.665 1382.69 381.635 1381.58 383.485C1380.51 385.336 1378.91 386.833 1376.81 387.975C1374.74 389.078 1372.28 389.629 1369.44 389.629Z" fill="white"/>
<path d="M1320.36 101.078H1345.98L1387.75 233.47L1427.9 101.078H1438.98L1390.23 263.799H1371.65L1320.36 101.078Z" fill="#FF6A15"/>
<path d="M1491.65 265.753C1483.63 265.753 1476.02 264.154 1468.86 261.015C1461.88 257.697 1455.71 253.255 1450.34 247.746C1445.15 242.059 1441.06 235.425 1438.06 227.842C1435.06 220.083 1433.61 211.849 1433.61 202.963C1433.61 194.078 1435.11 185.903 1438.06 178.321C1441.06 170.561 1445.15 163.986 1450.34 158.418C1455.71 152.731 1461.88 148.289 1468.86 145.149C1476.02 141.832 1483.63 140.173 1491.65 140.173C1499.67 140.173 1507.23 141.832 1514.21 145.149C1521.37 148.289 1527.54 152.731 1532.73 158.418C1538.1 163.927 1542.25 170.561 1545.25 178.321C1548.25 185.903 1549.69 194.078 1549.69 202.963V211.256H1456.98C1457.84 216.291 1459.34 220.793 1461.42 224.762C1463.5 228.731 1466.1 232.107 1469.27 234.951C1472.38 237.616 1475.85 239.69 1479.54 241.111C1483.4 242.533 1487.44 243.244 1491.6 243.244C1495.75 243.244 1502.38 242.474 1506.54 240.874C1510.69 239.157 1514.04 237.143 1516.58 234.951C1519.58 232.581 1522 229.797 1523.96 226.658H1548.54C1545.71 234.062 1541.79 240.637 1536.71 246.324C1534.46 248.693 1531.92 251.063 1529.1 253.432C1526.27 255.802 1522.98 257.934 1519.29 259.83C1515.54 261.548 1511.39 262.969 1506.77 264.095C1502.15 265.22 1497.08 265.753 1491.6 265.753H1491.65ZM1525.17 191.175C1524.6 187.681 1523.44 184.245 1521.83 180.75C1520.21 177.255 1517.96 174.293 1515.14 171.746C1512.31 169.08 1508.96 166.948 1505.1 165.349C1501.23 163.631 1496.73 162.742 1491.71 162.742C1486.69 162.742 1484.04 163.394 1480.29 164.638C1476.71 165.882 1473.36 167.777 1470.25 170.324C1467.25 172.694 1464.71 175.715 1462.63 179.328C1460.56 182.823 1459.06 186.733 1458.19 191.175H1525.23H1525.17Z" fill="#FF6A15"/>
<path d="M1593.31 142.661V159.247H1594.41C1596.48 155.752 1599.25 152.613 1602.66 149.77C1605.66 147.4 1609.29 145.268 1613.62 143.372C1618.12 141.299 1623.6 140.292 1630.18 140.292C1644.2 140.292 1655.1 144.616 1663.01 153.324C1670.91 161.854 1674.83 174.471 1674.83 191.175V263.384H1651.35V193.545C1651.35 182.823 1649.1 175.004 1644.66 170.087C1640.16 165.171 1633.47 162.742 1624.52 162.742C1615.58 162.742 1615.87 163.631 1612 165.349C1608.25 167.066 1605.02 169.554 1602.2 172.694C1599.37 175.715 1597.12 179.388 1595.5 183.83C1594 188.095 1593.25 192.893 1593.25 198.284V263.384H1569.77V142.661H1593.31Z" fill="#FF6A15"/>
<path d="M1748.28 264.865C1740.66 264.865 1733.62 263.384 1727.05 260.363C1720.64 257.342 1714.99 253.195 1710.08 247.805C1705.3 242.296 1701.55 235.662 1698.66 227.902C1695.95 220.142 1694.62 211.553 1694.62 202.075C1694.62 192.597 1695.95 184.008 1698.66 176.248C1701.49 168.488 1705.3 161.972 1710.08 156.582C1714.99 151.073 1720.64 146.808 1727.05 143.787C1733.62 140.766 1740.66 139.285 1748.28 139.285C1755.89 139.285 1759.24 140.233 1763.68 142.128C1768.12 144.024 1771.87 146.097 1774.88 148.289C1778.45 150.954 1781.51 153.916 1784.05 157.056H1785.14V141.654H1808.63V262.377H1785.14V245.791H1784.05C1781.51 249.286 1778.45 252.425 1774.88 255.269C1771.87 257.638 1768.18 259.83 1763.68 261.903C1759.18 263.799 1754.05 264.746 1748.28 264.746V264.865ZM1752.78 242.414C1762.3 242.414 1770.03 239.038 1776.03 232.226C1782.14 225.295 1785.2 215.284 1785.2 202.134C1785.2 188.984 1782.14 179.091 1776.03 172.279C1770.09 165.349 1762.3 161.854 1752.78 161.854C1743.26 161.854 1734.55 165.349 1728.43 172.279C1722.32 179.091 1719.26 188.984 1719.26 202.134C1719.26 215.284 1722.32 225.236 1728.43 232.226C1734.55 239.038 1742.68 242.414 1752.78 242.414Z" fill="#FF6A15"/>
<path d="M1852.24 142.661V159.247H1853.34C1855.42 155.752 1858.19 152.613 1861.59 149.77C1864.59 147.4 1868.22 145.268 1872.55 143.372C1877.05 141.299 1882.53 140.292 1889.11 140.292C1903.13 140.292 1914.03 144.616 1921.94 153.324C1929.84 161.854 1933.77 174.471 1933.77 191.175V263.384H1910.28V193.545C1910.28 182.823 1908.03 175.004 1903.59 170.087C1899.09 165.171 1892.4 162.742 1883.46 162.742C1874.51 162.742 1874.8 163.631 1870.94 165.349C1867.19 167.066 1863.96 169.554 1861.13 172.694C1858.3 175.715 1856.05 179.388 1854.44 183.83C1852.94 188.095 1852.19 192.893 1852.19 198.284V263.384H1828.7V142.661H1852.24Z" fill="#FF6A15"/>
<path d="M2010.9 265.753C2002.88 265.753 1995.32 264.273 1988.34 261.252C1981.36 258.112 1975.31 253.729 1970.23 248.22C1965.15 242.533 1961.17 235.899 1958.17 228.316C1955.34 220.556 1953.9 212.145 1953.9 202.963C1953.9 193.782 1955.34 185.43 1958.17 177.847C1961.17 170.087 1965.15 163.512 1970.23 157.944C1975.31 152.257 1981.31 147.933 1988.34 144.912C1995.32 141.773 2002.88 140.173 2010.9 140.173C2018.92 140.173 2021.69 140.825 2026.31 142.069C2030.92 143.313 2035.02 144.971 2038.6 147.045C2042.35 149.118 2045.52 151.487 2048.23 154.153C2050.88 156.819 2053.31 159.544 2055.38 162.209C2060.17 168.547 2063.58 175.774 2065.65 184.008H2041.08C2039.86 180.039 2037.96 176.485 2035.25 173.345C2033 170.68 2029.94 168.192 2026.08 166C2022.21 163.808 2017.13 162.683 2010.9 162.683C2004.67 162.683 2002.19 163.631 1998.15 165.526C1994.29 167.422 1990.88 170.088 1987.88 173.582C1985.06 177.077 1982.75 181.342 1980.96 186.377C1979.29 191.294 1978.48 196.803 1978.48 202.963C1978.48 209.124 1979.29 214.692 1980.96 219.786C1982.75 224.703 1985.06 228.849 1987.88 232.344C1990.88 235.839 1994.29 238.505 1998.15 240.4C2002.19 242.296 2006.4 243.244 2010.9 243.244C2017.31 243.244 2022.5 242.118 2026.54 239.927C2030.58 237.735 2033.75 235.247 2036.17 232.581C2038.83 229.56 2040.85 226.006 2042.17 221.919H2065.65C2063.58 230.271 2060.12 237.616 2055.38 243.955C2053.31 246.62 2050.88 249.345 2048.23 252.011C2045.52 254.558 2042.35 256.809 2038.6 258.882C2035.02 260.955 2030.92 262.614 2026.31 263.858C2021.69 265.102 2016.56 265.753 2010.9 265.753Z" fill="#FF6A15"/>
<path d="M2085.73 142.661H2109.21V263.384H2085.73V142.661Z" fill="#FF6A15"/>
<path d="M2188.54 265.753C2180.18 265.753 2172.39 264.154 2165.06 261.015C2157.91 257.697 2151.68 253.255 2146.31 247.746C2141.12 242.059 2136.91 235.425 2133.79 227.842C2130.79 220.083 2129.29 211.849 2129.29 202.963C2129.29 194.078 2130.79 185.903 2133.79 178.321C2136.91 170.561 2141.06 163.986 2146.31 158.418C2151.68 152.731 2157.91 148.289 2165.06 145.149C2172.39 141.832 2180.18 140.173 2188.54 140.173C2196.91 140.173 2204.64 141.832 2211.79 145.149C2219.12 148.289 2225.35 152.731 2230.54 158.418C2235.91 163.927 2240.06 170.561 2243.06 178.321C2246.18 185.903 2247.74 194.078 2247.74 202.963C2247.74 211.849 2246.18 220.083 2243.06 227.842C2240.06 235.425 2235.91 242.059 2230.54 247.746C2225.35 253.255 2219.06 257.697 2211.79 261.015C2204.64 264.154 2196.91 265.753 2188.54 265.753ZM2188.54 243.244C2193.62 243.244 2198.24 242.296 2202.39 240.4C2206.72 238.505 2210.35 235.839 2213.35 232.344C2216.47 228.849 2218.89 224.703 2220.51 219.786C2222.29 214.751 2223.16 209.124 2223.16 202.963C2223.16 196.803 2222.24 191.294 2220.51 186.377C2218.83 181.342 2216.47 177.077 2213.35 173.582C2210.35 170.088 2206.72 167.422 2202.39 165.526C2198.24 163.631 2193.62 162.683 2188.54 162.683C2183.47 162.683 2178.79 163.631 2174.47 165.526C2170.31 167.422 2166.62 170.088 2163.5 173.582C2160.5 177.077 2158.14 181.342 2156.35 186.377C2154.73 191.294 2153.87 196.803 2153.87 202.963C2153.87 209.124 2154.68 214.692 2156.35 219.786C2158.14 224.703 2160.5 228.849 2163.5 232.344C2166.62 235.839 2170.25 238.505 2174.47 240.4C2178.79 242.296 2183.47 243.244 2188.54 243.244Z" fill="#FF6A15"/>
<path d="M2085.73 105.165H2109.21V126.016H2085.73V105.165Z" fill="#FF6A15"/>
<path d="M667.802 267.497C659.898 267.497 652.571 266.016 645.763 262.995C639.128 259.974 633.243 255.768 628.166 250.378C623.204 244.81 619.281 238.175 616.339 230.415C613.57 222.655 612.185 214.007 612.185 204.47C612.185 194.933 613.57 186.284 616.339 178.525C619.281 170.765 623.204 164.189 628.166 158.799C633.243 153.231 639.128 148.966 645.763 145.945C652.571 142.924 659.898 141.443 667.802 141.443C675.706 141.443 679.168 142.391 683.784 144.286C688.399 146.182 692.265 148.255 695.38 150.447C699.073 153.172 702.246 156.074 704.9 159.273H706.054V143.812H730.401V265.187H706.054V248.541H704.9C702.246 252.036 699.13 255.176 695.38 258.078C692.265 260.448 688.399 262.699 683.784 264.713C679.168 266.608 673.802 267.556 667.802 267.556V267.497ZM672.418 244.869C682.283 244.869 690.361 241.433 696.534 234.621C702.88 227.631 706.054 217.561 706.054 204.411C706.054 191.26 702.88 181.249 696.534 174.437C690.361 167.447 682.341 163.953 672.418 163.953C662.494 163.953 653.494 167.447 647.148 174.437C640.801 181.249 637.628 191.26 637.628 204.411C637.628 217.561 640.801 227.631 647.148 234.621C653.494 241.433 661.917 244.869 672.418 244.869Z" fill="#FF6A15"/>
<path d="M774.788 143.659V160.305H775.942C778.134 156.81 780.961 153.67 784.538 150.768C787.654 148.398 791.404 146.266 795.904 144.37C800.52 142.297 806.231 141.29 813.039 141.29C827.578 141.29 838.944 145.673 847.079 154.381C855.272 162.97 859.368 175.647 859.368 192.47V265.034H835.021V194.839C835.021 184.058 832.713 176.18 828.098 171.263C823.482 166.347 816.501 163.859 807.212 163.859C797.923 163.859 798.27 164.747 794.231 166.465C790.365 168.183 786.962 170.671 784.019 173.87C781.077 176.891 778.769 180.623 777.038 185.065C775.48 189.33 774.73 194.188 774.73 199.578V265.034H750.383V143.659H774.788Z" fill="#FF6A15"/>
<path d="M935.331 267.497C927.427 267.497 920.099 266.016 913.291 262.995C906.657 259.974 900.772 255.768 895.695 250.378C890.733 244.81 886.81 238.175 883.867 230.415C881.098 222.655 879.713 214.007 879.713 204.47C879.713 194.933 881.098 186.284 883.867 178.525C886.81 170.765 890.733 164.189 895.695 158.799C900.772 153.231 906.657 148.966 913.291 145.945C920.099 142.924 927.427 141.443 935.331 141.443C943.235 141.443 946.696 142.391 951.312 144.286C955.928 146.182 959.793 148.255 962.909 150.447C966.601 153.172 969.774 156.074 972.428 159.273H973.582V98.5561H997.929V265.127H973.582V249.667H972.428C969.832 252.984 966.659 256.005 962.909 258.73C959.851 260.922 955.985 262.995 951.312 264.89C946.696 266.608 941.331 267.497 935.331 267.497ZM940.004 244.869C949.87 244.869 957.947 241.433 964.12 234.621C970.467 227.631 973.64 217.561 973.64 204.411C973.64 191.26 970.467 181.249 964.12 174.437C957.947 167.447 949.927 163.953 940.004 163.953C930.08 163.953 921.08 167.447 914.734 174.437C908.387 181.249 905.214 191.26 905.214 204.411C905.214 217.561 908.387 227.631 914.734 234.621C921.08 241.433 929.504 244.869 940.004 244.869Z" fill="#FF6A15"/>
<path d="M1078.3 267.497C1069.93 267.497 1062.09 265.897 1054.64 262.758C1047.37 259.441 1040.97 254.998 1035.43 249.43C1030.01 243.743 1025.8 237.05 1022.68 229.467C1019.56 221.708 1018.06 213.355 1018.06 204.47C1018.06 195.584 1019.62 187.351 1022.68 179.709C1025.8 171.949 1030.01 165.256 1035.43 159.747C1040.97 154.06 1047.43 149.617 1054.64 146.419C1062.09 143.101 1069.93 141.443 1078.3 141.443C1086.66 141.443 1094.45 143.101 1101.72 146.419C1109.16 149.617 1115.57 154.06 1120.93 159.747C1126.47 165.315 1130.8 171.949 1133.91 179.709C1137.03 187.351 1138.53 195.584 1138.53 204.47V212.822H1042.35C1043.28 217.916 1044.83 222.418 1046.97 226.387C1049.16 230.356 1051.82 233.792 1055.1 236.635C1058.33 239.36 1061.91 241.374 1065.78 242.795C1069.82 244.217 1073.97 244.928 1078.3 244.928C1082.62 244.928 1089.49 244.158 1093.82 242.559C1098.14 240.841 1101.61 238.827 1104.26 236.635C1107.38 234.266 1109.91 231.481 1111.93 228.283H1137.43C1134.49 235.746 1130.4 242.322 1125.14 248.008C1122.84 250.378 1120.18 252.747 1117.24 255.176C1114.3 257.545 1110.89 259.678 1107.03 261.573C1103.16 263.291 1098.84 264.772 1094.05 265.838C1089.26 266.964 1084.01 267.497 1078.3 267.497ZM1113.09 192.504C1112.45 189.009 1111.3 185.514 1109.63 182.019C1107.95 178.525 1105.59 175.504 1102.64 172.956C1099.7 170.232 1096.24 168.099 1092.2 166.559C1088.16 164.841 1083.55 163.952 1078.3 163.952C1073.05 163.952 1070.34 164.604 1066.47 165.848C1062.78 167.092 1059.26 169.047 1056.03 171.535C1052.97 173.904 1050.32 176.925 1048.12 180.598C1045.99 184.093 1044.43 188.062 1043.51 192.504H1113.09Z" fill="#FF6A15"/>
<path d="M1158.72 143.753H1183.07V161.583H1184.22C1186.07 158.088 1188.55 154.889 1191.67 152.046C1194.32 149.677 1197.61 147.544 1201.65 145.649C1205.8 143.575 1210.82 142.568 1216.71 142.568H1230.61V166.381H1215.55C1210.94 166.381 1206.61 167.151 1202.57 168.751C1198.71 170.35 1195.3 172.542 1192.36 175.385C1189.42 178.228 1187.11 181.723 1185.38 185.87C1183.82 190.016 1183.07 194.577 1183.07 199.672V265.127H1158.72V143.753Z" fill="#FF6A15"/>
<path d="M541.382 263.989C532.25 263.994 524.078 262.316 516.867 258.956C509.816 255.595 504.206 250.631 500.037 244.065C496.028 237.498 494.021 229.489 494.016 220.037L494.012 211.625L517.563 211.613L517.566 218.582C517.571 227.394 519.898 233.801 524.546 237.804C529.354 241.807 535.363 243.806 542.573 243.802C547.379 243.8 551.704 242.916 555.548 241.152C559.392 239.387 562.435 236.582 564.676 232.736C566.917 228.89 568.036 223.842 568.032 217.594L567.968 96.715L593.682 96.7014L593.746 217.1C593.751 227.033 591.513 235.525 587.031 242.577C582.709 249.629 576.864 254.999 569.496 258.688C562.128 262.216 553.798 263.983 544.506 263.988L541.382 263.989Z" fill="#FF6A15"/>
<path d="M77.3515 109.575L17.3053 150.814C16.2461 151.542 15.6131 152.746 15.6129 154.031V405.934C15.6129 408.089 17.3604 409.837 19.5161 409.837H176.209L181.576 425.45H19.5161L18.5136 425.423C8.20109 424.901 0 416.376 0 405.934V154.031C0.000243752 147.602 3.16603 141.582 8.46586 137.942L77.3515 90.6309V109.575Z" fill="white"/>
<path d="M405.45 137.931C410.647 141.585 413.741 147.541 413.741 153.894V405.934C413.741 416.712 405.003 425.45 394.225 425.45H277.94L283.078 409.837H394.225C396.38 409.837 398.128 408.089 398.128 405.934V153.894C398.128 152.624 397.509 151.431 396.47 150.7L373.611 134.626L378.711 119.124L405.45 137.931Z" fill="white"/>
<path d="M198.142 7.67609C204.863 3.0601 213.747 3.11166 220.417 7.80188L340.609 92.3271L335.505 107.826L211.437 20.5712C210.103 19.6337 208.325 19.6255 206.981 20.5483L163.935 50.1083V31.1678L198.142 7.67609Z" fill="white"/>
<path d="M378.612 81.9675L257.91 448.87H202.01L156.129 315.41C157.434 312.925 158.686 310.399 159.83 307.798C166.368 292.906 169.683 276.684 169.683 259.575V146.542L253.953 392.929L356.351 81.9675H378.612Z" fill="white"/>
<path d="M152.225 0V260.139C152.225 274.791 149.358 288.437 143.634 301.081C137.902 313.737 129.994 324.638 119.887 333.79C109.783 342.949 97.8179 350.099 84.0068 355.257C70.1884 360.423 55.202 362.999 39.0322 362.999V347.516C54.1954 347.516 66.3218 339.359 75.419 323.048C84.5117 306.745 89.0612 285.103 89.0612 258.138V0H152.225Z" fill="white"/>
</svg>
